<svg xmlns="http://www.w3.org/2000/svg" viewBox="0 0 512 512">
  

  <!--
    R=44, G=8, col_step=84, row_step=73, odd_offset=42
    hex points: (0,-44)(38,-22)(38,22)(0,44)(-38,22)(-38,-22)
    Center x=256, tree shifted up so stem has room

    Row 0 y=52  even, 3: 172, 256, 340
    Row 1 y=125 odd,  4: 130, 214, 298, 382
    Row 2 y=198 even, 5: 88, 172, 256, 340, 424
    Row 3 y=271 odd,  4: 130, 214, 298, 382
    Row 4 y=344 even, 3: 172, 256, 340

    Bottom of row4 hex = 344+44 = 388
    Stem start = 388+8 = 396
    Stem end = 492 (20px from bottom)
    Stem height = 96px — clearly visible
  -->

  <!-- row 0 — 3 -->
  <polygon points="0,-44 38,-22 38,22 0,44 -38,22 -38,-22" transform="translate(172,52)"  fill="#27AE60"/>
  <polygon points="0,-44 38,-22 38,22 0,44 -38,22 -38,-22" transform="translate(256,52)"  fill="#E8951A"/>
  <polygon points="0,-44 38,-22 38,22 0,44 -38,22 -38,-22" transform="translate(340,52)"  fill="#27AE60"/>

  <!-- row 1 — 4 -->
  <polygon points="0,-44 38,-22 38,22 0,44 -38,22 -38,-22" transform="translate(130,125)" fill="#E8951A"/>
  <polygon points="0,-44 38,-22 38,22 0,44 -38,22 -38,-22" transform="translate(214,125)" fill="#27AE60"/>
  <polygon points="0,-44 38,-22 38,22 0,44 -38,22 -38,-22" transform="translate(298,125)" fill="#27AE60"/>
  <polygon points="0,-44 38,-22 38,22 0,44 -38,22 -38,-22" transform="translate(382,125)" fill="#27AE60"/>

  <!-- row 2 — 5 -->
  <polygon points="0,-44 38,-22 38,22 0,44 -38,22 -38,-22" transform="translate(88,198)"  fill="#27AE60"/>
  <polygon points="0,-44 38,-22 38,22 0,44 -38,22 -38,-22" transform="translate(172,198)" fill="#27AE60"/>
  <polygon points="0,-44 38,-22 38,22 0,44 -38,22 -38,-22" transform="translate(256,198)" fill="#27AE60"/>
  <polygon points="0,-44 38,-22 38,22 0,44 -38,22 -38,-22" transform="translate(340,198)" fill="#E8951A"/>
  <polygon points="0,-44 38,-22 38,22 0,44 -38,22 -38,-22" transform="translate(424,198)" fill="#27AE60"/>

  <!-- row 3 — 4 -->
  <polygon points="0,-44 38,-22 38,22 0,44 -38,22 -38,-22" transform="translate(130,271)" fill="#27AE60"/>
  <polygon points="0,-44 38,-22 38,22 0,44 -38,22 -38,-22" transform="translate(214,271)" fill="#E8951A"/>
  <polygon points="0,-44 38,-22 38,22 0,44 -38,22 -38,-22" transform="translate(298,271)" fill="#27AE60"/>
  <polygon points="0,-44 38,-22 38,22 0,44 -38,22 -38,-22" transform="translate(382,271)" fill="#27AE60"/>

  <!-- row 4 — 3 -->
  <polygon points="0,-44 38,-22 38,22 0,44 -38,22 -38,-22" transform="translate(172,344)" fill="#E8951A"/>
  <polygon points="0,-44 38,-22 38,22 0,44 -38,22 -38,-22" transform="translate(256,344)" fill="#27AE60"/>
  <polygon points="0,-44 38,-22 38,22 0,44 -38,22 -38,-22" transform="translate(340,344)" fill="#27AE60"/>

  <!-- stem: tall and clearly visible -->
  <rect x="230" y="396" width="52" height="96" rx="14" fill="#B8894F"/>
</svg>
